<?xml version="1.0" standalone="no"?>
<!DOCTYPE svg PUBLIC "-//W3C//DTD SVG 20010904//EN"
 "http://www.w3.org/TR/2001/REC-SVG-20010904/DTD/svg10.dtd">
<svg version="1.0" xmlns="http://www.w3.org/2000/svg"
 width="5000.000000pt" height="3333.000000pt" viewBox="0 0 5000.000000 3333.000000"
 preserveAspectRatio="xMidYMid meet">

<g transform="translate(0.000000,3333.000000) scale(0.100000,-0.100000)"
fill="#000000" stroke="none">
<path d="M0 16665 l0 -16665 14000 0 c7700 0 14000 3 14000 8 0 4 -5 24 -11
45 -11 42 -3 121 12 111 5 -3 5 -13 -1 -24 -13 -24 -13 -33 0 -25 6 3 10 1 10
-6 0 -7 6 -4 14 6 13 18 14 17 20 -16 4 -19 12 -49 17 -66 l11 -33 145 0 146
0 -6 58 c-3 31 -7 64 -8 72 -3 8 4 14 16 15 11 0 19 6 17 12 -4 25 9 12 23
-21 8 -19 15 -57 16 -85 l2 -51 10789 0 10788 0 0 16665 0 16665 -4437 -1
c-2441 -1 -4430 -3 -4420 -6 9 -2 17 -9 17 -14 0 -5 -45 -9 -100 -9 -55 0
-100 4 -100 9 0 5 8 12 18 14 9 3 -2764 5 -6163 6 -5419 0 -6182 -1 -6199 -14
-11 -8 -41 -15 -66 -15 -25 0 -55 7 -66 15 -17 13 -1753 14 -14251 15 l-14233
0 0 -16665z m41111 16388 c54 -21 79 -72 79 -163 0 -136 -102 -223 -204 -175
-52 25 -79 81 -79 165 -1 92 40 159 109 180 42 12 49 12 95 -7z m-12521 -152
l0 -160 35 -3 c20 -2 35 -7 35 -13 0 -6 -41 -11 -96 -13 -75 -2 -95 0 -92 10
3 7 21 14 41 16 l37 3 0 136 c0 119 -2 134 -16 129 -73 -28 -93 -8 -26 27 85
44 82 49 82 -132z m6128 -398 c7 -12 12 -34 12 -49 l0 -27 -20 26 c-16 21 -20
39 -19 104 2 78 2 78 9 23 4 -31 12 -65 18 -77z m5169 5 c-2 -13 -4 -5 -4 17
-1 22 1 32 4 23 2 -10 2 -28 0 -40z m-2620 20 c-3 -8 -6 -5 -6 6 -1 11 2 17 5
13 3 -3 4 -12 1 -19z m-21 -3 c-3 -8 0 -15 7 -16 9 0 9 -2 -1 -6 -6 -2 -10 -9
-6 -14 3 -5 0 -9 -5 -9 -6 0 -9 10 -7 23 3 12 5 25 5 30 1 4 4 7 7 7 3 0 4 -7
0 -15z m2621 -27 c-3 -8 -6 -5 -6 6 -1 11 2 17 5 13 3 -3 4 -12 1 -19z
m-11225 -39 c53 -29 76 -174 39 -255 -27 -60 -63 -84 -126 -84 -92 0 -135 55
-135 176 0 85 27 139 85 166 42 19 98 18 137 -3z m8433 12 c3 -5 2 -12 -3 -15
-5 -3 -9 1 -9 9 0 17 3 19 12 6z m4013 -151 c3 -162 5 -170 50 -170 17 0 23
-5 20 -17 -3 -15 -16 -18 -88 -20 -47 0 -93 1 -102 4 -32 8 -19 30 22 37 l40
6 0 125 0 125 -40 -6 c-57 -9 -53 17 8 49 86 45 87 45 90 -133z m-3883 120
c-16 -11 -41 -19 -55 -19 -21 1 -19 2 8 9 19 4 39 13 45 19 6 6 16 11 22 11 5
0 -3 -9 -20 -20z m2691 -2860 c-1 -2523 -5 -3346 -16 -2975 l-4 150 -6 -115
c-3 -63 -7 1209 -8 2828 -1 1956 1 2942 8 2942 6 0 11 10 12 23 11 139 15
-622 14 -2853z m1351 2643 c-3 -10 -5 -2 -5 17 0 19 2 27 5 18 2 -10 2 -26 0
-35z m1 -730 c-1 -390 -3 -687 -5 -660 -3 27 -9 47 -16 47 -7 0 -6 4 3 10 13
9 13 10 0 10 -8 0 -87 2 -175 6 -88 3 -172 5 -187 5 l-28 -1 1 472 c1 260 4
461 6 446 2 -16 8 -28 13 -28 5 0 7 6 5 13 -2 6 7 21 22 31 14 11 23 15 20 9
-4 -6 -1 -14 5 -16 8 -4 7 -6 -4 -6 -9 -1 -20 -6 -23 -12 -4 -6 0 -9 11 -7 20
3 51 37 46 51 -1 4 1 6 6 5 4 -2 23 4 42 12 l34 14 -44 12 -45 12 37 1 c40 1
60 17 31 24 -10 2 -7 3 7 1 36 -4 111 18 106 32 -3 7 5 9 20 6 14 -2 24 0 24
7 0 6 17 11 40 11 l40 0 0 100 c0 55 2 100 5 100 3 0 4 -318 3 -707z m2939
701 c-3 -3 -12 -4 -19 -1 -8 3 -5 6 6 6 11 1 17 -2 13 -5z m-31 -16 c4 -7 3
-8 -4 -4 -7 4 -12 2 -12 -5 0 -7 -3 -9 -7 -6 -3 4 -12 2 -20 -4 -9 -9 -13 -8
-13 0 0 9 18 21 47 30 1 1 5 -4 9 -11z m-6986 -147 c0 -82 3 -156 6 -165 4
-10 18 -16 40 -16 19 0 34 -4 34 -10 0 -6 -38 -10 -95 -10 -53 0 -95 4 -95 9
0 6 17 11 38 13 l37 3 3 138 c1 75 -1 137 -5 137 -5 0 -23 -4 -40 -9 -18 -5
-35 -6 -38 -1 -3 5 7 11 22 15 16 3 39 14 53 25 14 11 28 20 33 20 4 0 7 -67
7 -149z m-2450 60 c-11 -35 -10 -73 5 -206 l6 -50 -21 24 c-18 20 -20 37 -20
139 0 95 3 119 17 134 23 26 29 7 13 -41z m9473 22 c3 -14 6 -80 6 -145 2
-113 1 -118 -19 -118 -19 0 -20 6 -20 145 0 117 3 145 14 145 7 0 16 -12 19
-27z m-3346 -200 c-3 -10 -5 -4 -5 12 0 17 2 24 5 18 2 -7 2 -21 0 -30z
m-12192 -53 c32 -30 48 -81 47 -149 0 -67 -14 -106 -50 -144 -44 -46 -98 -53
-175 -22 -57 24 -84 193 -41 265 33 57 79 83 142 78 37 -3 59 -11 77 -28z
m13192 14 c-3 -3 -12 -4 -19 -1 -8 3 -5 6 6 6 11 1 17 -2 13 -5z m56 -14 c16
-8 26 -19 22 -27 -2 -8 -1 -11 4 -8 16 9 24 -35 9 -52 -11 -15 -11 -16 5 -10
15 5 17 0 17 -41 0 -137 -85 -220 -183 -178 -109 45 -114 266 -7 316 24 11 24
11 -3 -16 -15 -15 -27 -34 -27 -43 0 -13 -2 -13 -9 -3 -12 19 -3 -135 10 -175
13 -39 53 -73 86 -73 63 0 93 48 93 149 0 38 5 73 10 76 13 8 13 35 -1 35 -5
0 -7 -5 -3 -12 4 -7 3 -8 -4 -4 -7 4 -12 18 -12 32 0 13 -3 23 -7 23 -20 -3
-31 2 -37 17 -3 8 -2 13 2 12 4 -2 20 -10 35 -18z m748 -301 c12 -6 30 -9 40
-6 10 3 19 1 19 -4 0 -5 -42 -9 -92 -8 -93 1 -97 2 -45 13 l27 6 0 104 c0 74
4 106 13 109 9 4 8 8 -3 16 -10 7 -11 11 -2 11 6 0 12 7 12 15 0 15 -13 18
-60 16 l-25 -1 25 14 c28 17 44 20 36 8 -3 -5 1 -9 9 -9 8 0 12 4 9 9 -3 4 -2
14 3 21 4 6 9 -59 11 -145 2 -148 4 -158 23 -169z m1570 55 c43 -22 69 -83 69
-164 0 -82 -12 -126 -47 -162 -36 -37 -108 -40 -141 -5 -32 34 -52 91 -52 149
0 149 78 231 171 182z m-478 -336 c5 -520 -2 -4130 -8 -4136 -3 -3 -6 60 -7
139 -1 98 -3 125 -7 84 -5 -47 -8 -55 -13 -35 -4 14 -8 985 -8 2158 0 2119 0
2132 20 2132 19 0 20 -9 23 -342z m-6524 297 c41 -21 65 -78 65 -155 0 -110
-56 -180 -143 -180 -86 0 -131 58 -131 169 0 88 30 149 85 171 32 14 94 11
124 -5z m3105 -4 c4 -5 -3 -7 -14 -4 -23 6 -26 13 -6 13 8 0 17 -4 20 -9z
m-119 -21 c-10 -11 -22 -20 -28 -20 -5 0 1 9 14 20 31 25 37 25 14 0z m185
-60 c17 -59 9 -157 -11 -144 -5 3 -6 -2 -3 -10 8 -20 -23 -64 -57 -82 -46 -23
-94 -18 -132 16 -35 30 -56 73 -33 64 8 -3 11 6 8 31 -3 27 -8 35 -19 31 -11
-5 -14 2 -11 27 2 19 8 31 16 30 6 -2 12 5 13 15 0 10 2 12 6 4 3 -7 -3 -24
-12 -39 -9 -14 -12 -22 -6 -19 12 8 21 -22 24 -76 1 -20 4 -36 7 -35 3 1 18
-11 34 -26 24 -23 35 -27 60 -21 61 13 86 55 86 148 0 36 5 68 10 71 6 3 10
13 10 21 0 8 -4 12 -10 9 -6 -3 -7 1 -4 9 3 9 2 16 -3 16 -5 0 -10 7 -10 16 0
26 25 -12 37 -56z m-5660 45 c0 -8 -4 -15 -10 -15 -5 0 -10 7 -10 15 0 8 5 15
10 15 6 0 10 -7 10 -15z m-6091 -250 c49 -25 78 -111 66 -195 -17 -123 -131
-195 -221 -140 -98 61 -99 266 -1 329 38 25 115 28 156 6z m13219 -153 l2
-162 35 0 c19 0 35 -4 35 -10 0 -6 -37 -10 -90 -10 -53 0 -90 4 -90 10 0 6 16
10 35 10 l35 0 0 140 0 140 -26 -10 c-32 -13 -54 -13 -54 -1 0 5 15 15 34 21
19 6 40 18 47 26 28 34 34 7 37 -154z m805 154 c49 -20 67 -48 79 -118 13 -80
0 -134 -45 -182 -43 -45 -92 -55 -144 -30 -47 24 -73 68 -80 137 -9 88 27 165
91 193 40 17 59 17 99 0z m-3150 -3 c-7 -2 -21 -2 -30 0 -10 3 -4 5 12 5 17 0
24 -2 18 -5z m-73 -7 c0 -2 -8 -10 -17 -17 -16 -13 -17 -12 -4 4 13 16 21 21
21 13z m-4700 -27 c0 -5 -7 -9 -15 -9 -15 0 -20 12 -9 23 8 8 24 -1 24 -14z
m4851 -11 c8 -15 8 -19 0 -14 -6 4 -11 1 -11 -8 0 -19 17 -30 23 -14 8 24 19
-80 12 -120 -8 -48 -36 -96 -70 -118 -33 -22 -94 -21 -129 1 -31 21 -60 70
-52 91 3 8 1 14 -4 14 -6 0 -9 10 -9 23 1 18 2 18 6 4 3 -11 11 -16 19 -13 9
4 14 -2 14 -15 0 -25 16 -57 43 -86 41 -46 113 -22 138 45 13 34 9 212 -5 231
-8 11 -8 13 1 7 7 -4 18 -16 24 -28z m-11234 0 c-3 -8 -6 -5 -6 6 -1 11 2 17
5 13 3 -3 4 -12 1 -19z m11027 -91 c-6 -39 -9 -44 -20 -32 -8 7 -14 22 -13 32
0 16 1 16 9 -2 6 -17 9 -14 15 18 10 52 16 41 9 -16z m-11011 -539 c5 6 16 12
25 11 12 0 11 -3 -5 -9 -16 -6 -23 -18 -23 -35 0 -14 5 -25 10 -25 6 0 10 9
10 19 0 27 10 31 53 24 49 -8 47 -23 -3 -23 -33 0 -40 -3 -40 -20 0 -17 7 -20
39 -20 36 0 40 3 46 30 4 16 4 34 1 39 -3 5 1 12 10 15 27 10 32 7 26 -16 -5
-21 -6 -21 -13 -2 -6 16 -8 15 -8 -8 -1 -20 4 -28 17 -28 15 -1 15 -2 -2 -15
-11 -8 -17 -15 -13 -15 4 0 10 0 15 0 4 0 10 -21 13 -47 4 -35 6 -20 7 55 l2
102 -27 -6 c-16 -4 -30 -8 -32 -10 -7 -6 -31 18 -30 30 0 15 116 69 134 62 12
-4 15 -36 17 -163 2 -156 2 -156 8 -53 3 58 7 96 9 85 2 -14 5 -15 7 -5 4 11
18 15 63 13 l59 -2 2 287 c0 157 3 288 5 291 3 2 4 -1055 3 -2350 -1 -1295 -4
-2317 -5 -2272 -3 67 -6 81 -18 76 -10 -3 -15 1 -15 12 0 11 5 15 16 11 12 -5
15 0 12 25 l-3 32 -185 -2 c-101 -1 -186 -4 -189 -7 -2 -2 -6 -64 -9 -136 -2
-73 -6 -135 -8 -137 -2 -2 -3 1071 -2 2385 2 1314 5 2254 8 2089 3 -165 9
-294 13 -287z m15827 242 c0 -173 -1 -180 -20 -180 -19 0 -20 7 -20 160 l0
161 -30 -16 c-37 -19 -40 -19 -40 3 0 20 51 50 88 51 l22 1 0 -180z m-6973
134 c30 -19 51 -61 58 -120 10 -70 -9 -131 -55 -176 -34 -34 -43 -38 -90 -38
-45 0 -56 4 -85 33 -37 37 -61 125 -50 180 26 119 134 178 222 121z m3071
-145 c2 -84 4 -154 5 -156 1 -1 15 -4 31 -7 57 -10 37 -16 -55 -15 -82 1 -89
2 -56 11 l37 10 0 134 c0 74 -3 134 -8 134 -4 0 -22 -4 -40 -9 -23 -7 -32 -6
-32 2 0 13 88 57 105 53 6 -2 11 -65 13 -157z m-5560 109 c-6 -18 -28 -21 -28
-4 0 9 7 16 16 16 9 0 14 -5 12 -12z m3990 -130 c-1 -79 -3 -119 -5 -90 -2 28
-8 52 -14 52 -5 0 -9 21 -9 46 0 27 4 43 10 39 6 -4 10 13 10 44 0 28 2 51 5
51 3 0 4 -64 3 -142z m2425 65 c-29 -2 -78 -2 -110 0 -32 2 -8 3 52 3 61 0 87
-1 58 -3z m-79 -169 c14 -5 16 -29 16 -164 l0 -159 33 -3 c17 -2 32 -9 32 -15
0 -7 -3 -13 -7 -13 -5 0 -48 0 -98 0 -73 0 -90 3 -90 15 0 10 11 15 35 15 l35
0 0 129 0 130 -32 -10 c-44 -12 -48 -12 -48 9 1 10 21 27 53 43 29 14 53 27
54 28 1 0 8 -2 17 -5z m-2367 -26 c-3 -8 -6 -5 -6 6 -1 11 2 17 5 13 3 -3 4
-12 1 -19z m3188 6 c46 -21 69 -73 70 -154 0 -116 -52 -180 -148 -180 -40 0
-54 5 -77 28 -65 66 -67 207 -3 275 47 49 99 60 158 31z m773 5 c94 -32 109
-221 25 -305 -30 -30 -40 -34 -89 -34 -48 0 -60 4 -84 28 -61 61 -66 201 -11
266 43 51 99 66 159 45z m-3158 -159 c0 -159 0 -160 23 -160 12 0 29 -5 37
-10 10 -7 -14 -10 -77 -10 -59 0 -93 4 -93 11 0 5 4 8 9 5 5 -3 23 -3 40 0
l31 7 0 139 0 139 -22 -6 c-13 -4 -31 -9 -40 -11 -10 -3 -18 -2 -18 3 0 9 78
51 98 52 9 1 12 -37 12 -159z m-4772 128 c-6 -18 -28 -21 -28 -4 0 9 7 16 16
16 9 0 14 -5 12 -12z m-6299 -1 c-2 -2 -11 -8 -20 -15 -12 -9 -16 -9 -16 1 0
7 9 14 20 14 11 1 18 1 16 0z m10244 -4 c-7 -2 -21 -2 -30 0 -10 3 -4 5 12 5
17 0 24 -2 18 -5z m105 0 c-10 -2 -26 -2 -35 0 -10 3 -2 5 17 5 19 0 27 -2 18
-5z m-10061 -25 c-3 -8 -6 -5 -6 6 -1 11 2 17 5 13 3 -3 4 -12 1 -19z m15508
-210 c15 -12 34 -36 41 -54 16 -39 18 -153 4 -206 -14 -50 -61 -88 -109 -88
-77 0 -121 67 -121 185 0 79 23 142 61 169 33 23 91 20 124 -6z m-7057 -176
l2 -162 35 0 c24 0 35 -5 35 -15 0 -12 -17 -15 -95 -15 -78 0 -95 3 -95 15 0
10 11 15 35 15 l35 0 0 134 0 135 -32 -10 c-43 -12 -48 -11 -48 4 0 13 98 66
115 63 6 -2 11 -67 13 -164z m-26181 66 c-2 -18 -4 -4 -4 32 0 36 2 50 4 33 2
-18 2 -48 0 -65z m29348 76 c56 -36 73 -173 33 -254 -29 -56 -76 -83 -133 -76
-122 15 -158 237 -51 321 37 29 113 34 151 9z m-1665 2 c0 -2 -7 -7 -16 -10
-8 -3 -12 -2 -9 4 6 10 25 14 25 6z m-3944 -45 c-10 -16 -36 -13 -36 3 0 17
21 27 34 16 4 -5 5 -13 2 -19z m-23728 -653 c4 -4 8 61 10 145 2 84 6 154 8
156 2 2 3 -974 2 -2170 -1 -1196 -3 -2147 -5 -2114 -6 109 -18 92 -23 -35 -3
-69 -6 939 -6 2240 1 1301 2 2235 3 2075 2 -159 7 -293 11 -297z m30131 396
c70 -59 68 -219 -4 -291 -29 -29 -39 -33 -88 -33 -93 0 -137 54 -137 170 0 74
17 117 59 153 46 38 126 39 170 1z m761 11 c45 -23 64 -69 64 -150 0 -117 -51
-185 -139 -185 -88 0 -129 54 -130 170 0 59 4 82 21 108 42 67 119 91 184 57z
m780 0 c39 -20 61 -65 67 -135 5 -48 1 -67 -20 -113 -30 -65 -63 -87 -132 -87
-38 0 -52 5 -75 28 -53 54 -65 186 -22 253 40 64 118 87 182 54z m-3099 -24
c63 -78 43 -242 -36 -291 -33 -20 -80 -27 -89 -12 -2 4 10 6 28 4 27 -3 37 2
59 28 15 17 27 38 27 46 0 9 3 13 8 11 12 -8 -2 166 -16 190 -23 41 -80 56
-123 33 -63 -34 -74 -202 -16 -277 21 -28 21 -28 0 -10 -16 14 -22 15 -26 5
-4 -8 -6 -7 -6 5 -1 9 -5 17 -11 17 -5 0 -10 5 -10 11 0 5 5 7 11 4 7 -5 8 5
3 32 -9 52 -23 65 -18 17 3 -30 2 -34 -5 -19 -17 35 -13 113 6 123 10 6 14 16
9 27 -4 12 5 28 31 52 35 34 39 35 96 31 47 -4 64 -9 78 -27z m-28554 -28 c-3
-10 -5 -4 -5 12 0 17 2 24 5 18 2 -7 2 -21 0 -30z m23713 33 c0 -15 -14 -35
-21 -30 -15 9 -10 34 6 34 8 0 15 -2 15 -4z m-13 -188 c-2 -18 -4 -6 -4 27 0
33 2 48 4 33 2 -15 2 -42 0 -60z m0 -60 c-3 -8 -6 -5 -6 6 -1 11 2 17 5 13 3
-3 4 -12 1 -19z m9474 -90 c-1 -269 1 -248 -21 -248 -19 0 -20 7 -20 155 0 85
-4 155 -8 155 -5 0 -17 -7 -28 -15 -26 -20 -34 -19 -34 5 0 22 63 61 93 57 17
-2 19 -13 18 -109z m-6981 67 c46 -24 65 -68 65 -155 0 -87 -19 -130 -76 -168
-49 -34 -122 -27 -160 16 -51 57 -60 182 -18 251 39 64 125 89 189 56z m3127
-10 c55 -38 71 -203 26 -263 -34 -45 -71 -67 -113 -66 -76 2 -118 54 -127 154
-7 73 21 140 69 170 40 24 114 27 145 5z m-5612 -26 c-4 -17 -7 -63 -6 -102 1
-89 2 -2333 1 -3171 0 -341 -3 -617 -6 -613 -4 3 -6 76 -5 161 1 98 -2 156 -8
156 -6 0 -12 -50 -14 -122 -1 -68 -4 734 -5 1781 -2 1760 -1 1906 15 1923 24
27 35 22 28 -13z m-348 -271 c-2 -13 -4 -3 -4 22 0 25 2 35 4 23 2 -13 2 -33
0 -45z m6693 -137 l0 -160 32 -3 c17 -2 33 -9 36 -15 3 -10 -19 -13 -88 -13
-69 0 -91 3 -88 13 3 6 19 13 36 15 l32 3 0 135 0 134 -25 -6 c-68 -17 -74 -2
-13 30 80 43 78 47 78 -133z m828 143 c30 -21 50 -61 57 -120 10 -70 -9 -131
-55 -176 -31 -32 -45 -38 -78 -38 -94 0 -137 53 -137 170 0 84 24 138 73 165
36 19 112 19 140 -1z m732 -144 l0 -160 24 0 c31 0 56 -10 56 -21 0 -5 -43 -9
-96 -9 -72 0 -95 3 -92 13 3 6 19 13 36 15 l32 3 0 135 c0 131 -1 135 -20 130
-11 -3 -29 -9 -40 -12 -13 -3 -20 -1 -20 8 0 12 81 55 108 57 9 1 12 -37 12
-159z m820 145 c16 -9 37 -30 47 -48 23 -43 23 -160 0 -203 -47 -89 -141 -112
-202 -51 -75 75 -73 210 5 281 32 29 48 36 81 36 22 0 53 -7 69 -15z m-3953
-157 c-3 -7 -5 -2 -5 12 0 14 2 19 5 13 2 -7 2 -19 0 -25z m-5120 -90 c-2 -18
-4 -6 -4 27 0 33 2 48 4 33 2 -15 2 -42 0 -60z m20 0 c-2 -13 -4 -3 -4 22 0
25 2 35 4 23 2 -13 2 -33 0 -45z m9809 -3 c49 -20 74 -78 74 -175 0 -93 -24
-151 -71 -175 -35 -19 -90 -15 -116 7 -47 38 -69 178 -42 259 19 54 64 96 107
98 7 1 28 -6 48 -14z m-6996 -40 c46 -24 65 -68 65 -155 0 -114 -46 -177 -136
-187 -88 -9 -143 59 -143 177 0 74 17 114 64 154 37 31 103 35 150 11z m3115
-5 c33 -13 65 -80 65 -140 0 -69 -19 -121 -57 -157 -28 -27 -43 -33 -78 -33
-35 0 -48 5 -64 26 -12 15 -21 23 -21 19 0 -4 -7 -2 -15 5 -17 14 -21 35 -5
25 6 -3 10 1 10 10 0 11 -5 15 -16 11 -8 -3 -12 -2 -9 3 3 5 1 12 -5 16 -5 3
-10 26 -10 50 0 24 5 47 10 50 6 4 8 10 5 15 -10 16 25 70 58 90 35 22 91 26
132 10z m-5948 -107 c-2 -16 -4 -3 -4 27 0 30 2 43 4 28 2 -16 2 -40 0 -55z
m13 -558 c3 207 6 4 6 -495 0 -465 -2 -827 -5 -805 -3 22 -8 -93 -11 -255 -3
-162 -5 227 -5 865 0 638 2 976 5 750 l5 -410 5 350z m7 433 c-3 -8 -6 -5 -6
6 -1 11 2 17 5 13 3 -3 4 -12 1 -19z m8416 -51 c-2 -4 -3 -496 -3 -1094 0
-597 -2 -1084 -5 -1082 -2 3 -5 121 -6 263 l-1 258 -31 -6 c-18 -3 -56 -9 -85
-12 -29 -4 -55 -10 -57 -14 -3 -4 -21 -6 -41 -3 -20 3 -34 1 -31 -4 3 -4 -24
-8 -59 -8 -45 0 -64 4 -64 13 0 21 -18 13 -23 -10 -2 -13 -5 364 -6 838 0 473
2 863 5 866 8 9 409 3 407 -5z m-1696 -17 c37 -22 53 -67 53 -151 0 -112 -71
-189 -160 -174 -124 21 -150 256 -36 326 40 24 102 24 143 -1z m781 4 c56 -39
75 -169 36 -249 -43 -88 -147 -112 -206 -46 -72 80 -58 241 25 291 39 24 114
26 145 4z m1509 -140 c-2 -98 1 -158 8 -164 5 -4 24 -10 40 -13 17 -2 -13 -4
-65 -4 -55 0 -80 2 -60 6 l35 6 3 138 c1 75 -1 137 -5 137 -5 0 -23 -4 -41 -9
-18 -6 -32 -6 -32 -1 0 10 87 58 107 59 10 1 12 -36 10 -155z m786 -141 c-1
-18 -2 -98 -2 -178 -1 -138 -2 -145 -21 -145 -19 0 -20 7 -20 156 0 145 -1
156 -17 149 -44 -18 -53 -17 -53 2 0 23 54 53 89 50 21 -2 25 -7 24 -34z
m-6963 -21 c54 -54 64 -167 21 -250 -27 -54 -63 -75 -124 -73 -85 2 -127 59
-127 176 0 75 14 110 60 149 26 21 42 26 87 26 47 0 59 -4 83 -28z m3828 -324
l-1 -53 -6 48 c-6 48 -6 48 -26 30 -11 -10 -29 -19 -40 -21 -12 -2 -4 7 20 22
22 13 43 25 48 25 4 1 6 -23 5 -51z m780 -105 c-1 -87 -3 -140 -6 -118 -3 32
-6 36 -12 20 -5 -12 -9 26 -9 97 l-1 117 -30 -10 c-52 -19 -54 -4 -4 23 27 15
52 27 57 27 4 1 6 -70 5 -156z m1601 146 c17 -6 36 -20 41 -30 9 -15 8 -18 -7
-12 -10 3 -25 12 -33 19 -23 20 -63 26 -93 15 -42 -16 -67 -66 -67 -135 0 -58
-8 -74 -12 -24 -1 17 -7 24 -15 21 -9 -4 -11 0 -7 11 3 9 11 13 18 9 6 -4 6
-1 -2 9 -21 27 12 85 64 113 34 18 69 19 113 4z m68 -111 c-3 -8 -6 -5 -6 6
-1 11 2 17 5 13 3 -3 4 -12 1 -19z m720 -150 c30 -25 53 -91 53 -157 0 -126
-42 -191 -124 -191 -72 0 -116 67 -116 179 0 82 15 125 57 161 31 28 42 31 75
27 21 -3 46 -11 55 -19z m-7059 -150 c-1 -191 -1 -188 21 -188 26 0 51 -10 51
-21 0 -5 -43 -9 -95 -9 -98 0 -128 14 -55 26 l41 7 -3 131 c-3 142 -1 137 -62
121 -43 -12 -29 10 24 38 80 43 79 45 78 -105z m4599 86 c-3 -3 -12 -4 -19 -1
-8 3 -5 6 6 6 11 1 17 -2 13 -5z m141 -1 c-10 -2 -26 -2 -35 0 -10 3 -2 5 17
5 19 0 27 -2 18 -5z m2303 -519 c43 -22 62 -73 62 -169 0 -94 -20 -148 -64
-170 -30 -16 -94 -21 -85 -6 3 5 -1 8 -10 7 -22 -1 -53 42 -64 90 -23 98 -5
189 47 234 38 34 70 37 114 14z m-7052 -46 c0 -21 -1 -21 -8 -4 -7 17 -8 17
-23 2 -9 -9 -21 -16 -27 -16 -6 0 -11 -4 -11 -10 0 -5 -5 -10 -11 -10 -16 0 0
20 35 41 40 24 46 24 45 -3z m-2 -60 c-3 -7 -5 -2 -5 12 0 14 2 19 5 13 2 -7
2 -19 0 -25z m6550 -155 c-3 -10 -5 -2 -5 17 0 19 2 27 5 18 2 -10 2 -26 0
-35z m-1002 -3 c3 -5 1 -10 -4 -10 -6 0 -11 5 -11 10 0 6 2 10 4 10 3 0 8 -4
11 -10z m11 -98 c42 -61 42 -183 0 -245 -59 -87 -157 -98 -222 -25 -45 49 -59
166 -27 236 9 20 15 42 14 47 -2 6 1 7 5 2 4 -4 17 2 28 12 12 11 44 24 71 28
59 11 98 -5 131 -55z m-12 53 c-4 -8 -7 -15 -9 -15 -2 0 -5 7 -9 15 -3 9 0 15
9 15 9 0 12 -6 9 -15z m-8307 -157 c-2 -29 -3 -6 -3 52 0 58 1 81 3 53 2 -29
2 -77 0 -105z m8010 40 c-3 -7 -5 -2 -5 12 0 14 2 19 5 13 2 -7 2 -19 0 -25z
m-8010 -190 c-3 -8 -6 -5 -6 6 -1 11 2 17 5 13 3 -3 4 -12 1 -19z m0 -210 c-2
-35 -3 -7 -3 62 0 69 1 97 3 63 2 -35 2 -91 0 -125z m-5667 6 c0 -8 -4 -14 -9
-14 -6 0 -9 9 -8 19 1 22 17 18 17 -5z m5647 -156 c-2 -35 -3 -9 -3 57 0 66 1
94 3 63 2 -32 2 -86 0 -120z m8430 60 c-2 -13 -4 -5 -4 17 -1 22 1 32 4 23 2
-10 2 -28 0 -40z m-14180 2 c38 -22 49 -41 63 -105 31 -139 -73 -272 -184
-235 -62 20 -94 71 -102 163 -5 52 -2 69 18 107 43 83 133 114 205 70z m14074
-18 c37 -42 55 -128 39 -191 -29 -117 -109 -167 -205 -127 -82 35 -109 207
-45 296 48 68 160 79 211 22z m-11794 -234 c-1 -51 -3 -12 -3 87 0 99 2 141 3
93 2 -48 2 -129 0 -180z m11900 170 c-3 -8 -6 -5 -6 6 -1 11 2 17 5 13 3 -3 4
-12 1 -19z m-2950 -45 c-3 -10 -5 -4 -5 12 0 17 2 24 5 18 2 -7 2 -21 0 -30z
m2950 -45 c-3 -8 -6 -5 -6 6 -1 11 2 17 5 13 3 -3 4 -12 1 -19z m-11920 -70
c-2 -18 -4 -6 -4 27 0 33 2 48 4 33 2 -15 2 -42 0 -60z m11791 -348 c47 -29
65 -78 60 -170 -2 -65 -7 -82 -31 -113 -35 -47 -58 -59 -114 -60 -83 -1 -134
64 -135 176 -1 50 4 73 23 108 41 75 128 101 197 59z m-14046 -10 c38 -30 51
-70 46 -152 -4 -80 -23 -130 -50 -134 -15 -2 -16 1 -7 19 15 29 24 37 16 14
-4 -10 -3 -16 2 -13 5 3 11 15 14 26 3 11 1 18 -4 14 -5 -3 -9 29 -9 73 0 117
-45 173 -118 147 -49 -18 -67 -57 -69 -152 -2 -116 -2 -114 -13 -107 -6 4 -8
10 -5 15 3 4 0 10 -5 12 -6 2 -14 29 -17 61 -7 71 15 136 60 172 41 32 122 35
159 5z m2275 -212 c-1 -46 -3 -11 -3 77 0 88 2 125 3 83 2 -42 2 -114 0 -160z
m-30 190 c-3 -8 -6 -5 -6 6 -1 11 2 17 5 13 3 -3 4 -12 1 -19z m-2402 -268
c-11 -17 -23 -1 -18 21 5 19 7 19 15 5 5 -9 6 -21 3 -26z m6235 -75 c-14 -17
-15 -138 0 -164 5 -11 10 -35 9 -53 0 -18 -3 -26 -6 -18 -3 8 -12 19 -19 23
-11 6 -14 37 -14 123 0 94 3 120 18 139 l17 23 3 -30 c2 -16 -2 -36 -8 -43z
m7922 -207 c0 -7 2 -80 2 -163 l1 -150 33 -5 c18 -3 33 -9 32 -15 0 -11 -107
-17 -159 -9 -39 6 -31 21 14 26 l30 3 3 132 3 132 -33 -10 c-76 -21 -79 5 -5
43 59 30 76 33 79 16z m-11725 -20 c-3 -8 -6 -5 -6 6 -1 11 2 17 5 13 3 -3 4
-12 1 -19z m0 -70 c-2 -13 -4 -5 -4 17 -1 22 1 32 4 23 2 -10 2 -28 0 -40z m0
-160 c-3 -7 -5 -2 -5 12 0 14 2 19 5 13 2 -7 2 -19 0 -25z m11723 -498 c0
-145 2 -160 18 -161 27 -1 53 -7 60 -13 3 -3 -41 -6 -97 -6 -66 0 -100 4 -96
10 3 6 22 10 41 10 l34 0 0 135 0 135 -40 -6 c-52 -9 -51 6 3 33 79 40 77 44
77 -137z m-8971 -22770 c39 -88 71 -162 71 -165 0 -8 -60 -6 -61 3 0 4 -2 18
-3 32 -3 37 -97 250 -107 244 -5 -3 -12 2 -16 11 -6 17 11 35 33 35 6 0 44
-72 83 -160z m181 -410 c0 -5 -13 -10 -29 -10 -17 0 -33 5 -36 10 -4 6 8 10
29 10 20 0 36 -4 36 -10z m148 -332 c3 -15 -2 -17 -30 -14 -45 5 -50 31 -6 31
23 0 34 -5 36 -17z m196 -436 c42 -95 76 -177 76 -181 0 -4 -17 -5 -37 -2 -32
5 -38 11 -39 31 -2 33 -104 261 -126 284 -24 24 -23 41 5 53 16 8 25 8 34 -1
6 -6 46 -89 87 -184z m-19500 -299 c-40 -92 -72 -168 -70 -170 2 -2 26 -6 54
-10 95 -11 42 -23 -104 -23 -89 0 -144 4 -144 10 0 6 12 10 28 10 15 0 43 3
64 6 33 6 38 12 66 73 16 36 46 101 66 144 l36 78 -23 9 c-21 8 -21 9 -1 9 11
1 24 5 30 11 14 14 35 -3 24 -20 -8 -13 -10 -12 -10 3 0 10 -4 16 -9 13 -13
-8 -10 -54 4 -66 11 -9 12 -7 8 9 -3 12 -1 21 4 21 5 0 17 14 26 30 10 17 20
30 22 30 2 0 -30 -75 -71 -167z m-54 123 c0 -2 -11 -6 -25 -8 -13 -3 -22 -1
-19 3 5 9 44 13 44 5z m19750 -276 c10 -18 8 -20 -30 -20 -44 0 -58 25 -17 33
12 2 25 5 29 6 4 0 12 -8 18 -19z m-6349 -113 c-10 -9 -11 -8 -5 6 3 10 9 15
12 12 3 -3 0 -11 -7 -18z"/>
<path d="M41013 33028 c-64 -31 -73 -219 -13 -273 25 -23 78 -22 102 2 25 25
43 117 34 176 -12 77 -69 122 -123 95z"/>
<path d="M28505 32426 c-29 -29 -39 -79 -32 -159 7 -83 30 -112 88 -112 38 0
45 4 63 35 25 42 29 156 8 206 -23 55 -87 70 -127 30z"/>
<path d="M41030 31906 c0 -9 40 -13 46 -5 3 5 -6 9 -20 9 -14 0 -26 -2 -26 -4z"/>
<path d="M41050 31846 c0 -2 7 -7 16 -10 8 -3 12 -2 9 4 -6 10 -25 14 -25 6z"/>
<path d="M40891 31763 c-1 -6 -4 -20 -7 -30 -5 -17 -5 -17 6 0 6 10 9 23 6 30
-3 9 -5 9 -5 0z"/>
<path d="M41018 30923 c7 -3 16 -2 19 1 4 3 -2 6 -13 5 -11 0 -14 -3 -6 -6z"/>
<path d="M41058 30923 c7 -3 16 -2 19 1 4 3 -2 6 -13 5 -11 0 -14 -3 -6 -6z"/>
<path d="M28524 31850 c-13 -5 -29 -28 -39 -54 -29 -76 -5 -212 40 -230 33
-12 62 -5 86 20 22 24 24 34 24 126 0 97 -1 100 -28 124 -30 25 -48 28 -83 14z"/>
<path d="M44126 31571 c-36 -39 -39 -189 -6 -251 12 -23 43 -34 70 -25 63 20
78 215 23 278 -21 22 -66 22 -87 -2z"/>
<path d="M37097 31550 c-35 -28 -51 -81 -44 -150 6 -71 24 -110 59 -129 59
-33 116 20 125 115 12 138 -62 225 -140 164z"/>
<path d="M28519 31257 c-30 -23 -41 -60 -41 -132 0 -80 19 -129 55 -146 35
-16 75 5 92 46 19 44 19 146 1 190 -21 50 -71 70 -107 42z"/>
<path d="M42573 31270 c-45 -18 -68 -102 -53 -194 14 -87 58 -126 119 -105 40
14 62 65 63 144 0 84 -16 132 -52 150 -33 17 -45 18 -77 5z"/>
<path d="M39590 31157 c0 -14 4 -28 8 -31 10 -6 10 40 0 50 -5 4 -8 -4 -8 -19z"/>
<path d="M39590 31100 c0 -5 5 -10 11 -10 5 0 7 5 4 10 -3 6 -8 10 -11 10 -2
0 -4 -4 -4 -10z"/>
<path d="M28640 30550 c0 -20 5 -21 52 -18 37 2 54 8 56 18 2 12 -10 16 -53
18 -50 3 -55 1 -55 -18z"/>
<path d="M28532 30410 c0 -14 2 -19 5 -12 2 6 2 18 0 25 -3 6 -5 1 -5 -13z"/>
<path d="M37090 30952 c-38 -38 -49 -117 -26 -195 9 -30 23 -60 32 -68 23 -19
80 -16 103 5 28 25 45 106 36 173 -8 66 -46 113 -90 113 -16 0 -38 -11 -55
-28z"/>
<path d="M41793 30680 c-38 -15 -57 -67 -56 -146 2 -109 33 -158 99 -152 55 5
78 40 82 133 5 91 -10 140 -48 160 -33 17 -45 18 -77 5z"/>
<path d="M42564 30675 c-35 -24 -46 -67 -43 -154 5 -99 26 -134 83 -139 42 -4
60 8 83 51 20 39 19 152 -1 200 -22 53 -79 73 -122 42z"/>
<path d="M44147 30409 c-32 -19 -49 -69 -49 -144 0 -130 62 -192 121 -122 6 8
16 40 21 72 13 77 -2 153 -36 183 -28 25 -32 26 -57 11z"/>
<path d="M40214 30376 c-34 -24 -47 -68 -42 -150 2 -56 9 -82 24 -103 44 -58
112 -55 145 7 29 53 27 176 -4 221 -18 28 -30 35 -62 37 -24 2 -49 -3 -61 -12z"/>
<path d="M11000 29570 c0 -5 5 -10 10 -10 6 0 10 5 10 10 0 6 -4 10 -10 10 -5
0 -10 -4 -10 -10z"/>
<path d="M41014 30086 c-39 -17 -54 -57 -54 -143 0 -101 31 -154 92 -153 50 1
88 64 88 147 0 121 -51 181 -126 149z"/>
<path d="M41775 30078 c-48 -42 -53 -196 -8 -256 22 -30 69 -40 103 -22 32 17
50 71 50 145 0 36 -6 81 -14 100 -24 58 -84 73 -131 33z"/>
<path d="M42567 30089 c-31 -18 -47 -65 -47 -141 0 -87 21 -138 63 -152 69
-25 118 36 118 147 0 73 -19 130 -49 146 -26 14 -61 14 -85 0z"/>
<path d="M37099 29787 c-30 -23 -42 -61 -42 -132 1 -75 11 -112 38 -138 20
-21 73 -22 99 -2 34 26 51 144 32 220 -14 55 -85 84 -127 52z"/>
<path d="M40233 29800 c-40 -16 -63 -68 -63 -142 0 -105 35 -168 92 -168 69 0
98 48 98 161 0 81 -19 131 -56 148 -29 13 -41 13 -71 1z"/>
<path d="M34700 29356 c0 -91 4 -146 10 -146 6 0 10 53 10 139 0 83 -4 142
-10 146 -6 4 -10 -45 -10 -139z"/>
<path d="M34700 26340 c0 -22 5 -40 10 -40 6 0 10 18 10 40 0 22 -4 40 -10 40
-5 0 -10 -18 -10 -40z"/>
<path d="M34700 26275 c0 -8 5 -15 10 -15 6 0 10 7 10 15 0 8 -4 15 -10 15 -5
0 -10 -7 -10 -15z"/>
<path d="M41778 29490 c-48 -37 -59 -177 -21 -243 37 -63 113 -61 145 3 23 45
24 169 3 210 -27 52 -83 65 -127 30z"/>
<path d="M43332 29487 c-46 -49 -51 -186 -8 -250 36 -54 110 -48 140 11 34 67
25 195 -16 239 -29 31 -87 31 -116 0z"/>
<path d="M44131 29217 c-40 -43 -46 -182 -11 -247 11 -21 51 -36 74 -27 62 24
66 255 6 287 -29 15 -45 12 -69 -13z"/>
<path d="M37102 29203 c-27 -11 -46 -67 -46 -138 1 -99 33 -155 89 -155 44 0
74 35 84 100 14 87 -4 171 -40 190 -19 10 -65 12 -87 3z"/>
<path d="M40221 29206 c-30 -16 -50 -52 -51 -89 0 -16 -4 -26 -10 -22 -5 3 -8
0 -5 -7 2 -7 9 -39 15 -71 22 -110 95 -152 158 -89 27 25 29 33 31 118 2 69
-1 100 -13 123 -26 50 -75 65 -125 37z"/>
<path d="M40140 29047 c0 -20 4 -38 9 -42 6 -3 7 10 4 32 -8 50 -13 55 -13 10z"/>
<path d="M34394 27710 c0 -124 2 -174 3 -112 2 61 2 163 0 225 -1 61 -3 11 -3
-113z"/>
<path d="M34391 27354 c0 -11 3 -14 6 -6 3 7 2 16 -1 19 -3 4 -6 -2 -5 -13z"/>
<path d="M40997 28909 c-29 -17 -47 -72 -47 -139 0 -106 39 -164 106 -158 59
5 78 40 82 146 3 78 1 91 -20 122 -20 29 -30 35 -63 37 -22 2 -48 -2 -58 -8z"/>
<path d="M41778 28910 c-31 -18 -51 -94 -44 -162 10 -104 58 -155 124 -132 45
16 63 65 60 166 -3 75 -6 90 -27 112 -26 28 -80 35 -113 16z"/>
<path d="M37115 28620 c-51 -20 -74 -99 -57 -191 19 -101 77 -138 137 -86 51
44 56 199 7 255 -20 24 -59 33 -87 22z"/>
<path d="M44124 28035 c-34 -53 -38 -176 -7 -237 14 -28 51 -45 77 -35 51 20
72 207 30 264 -30 40 -77 43 -100 8z"/>
<path d="M44135 27458 c-63 -55 -58 -232 8 -281 25 -20 26 -20 54 -1 15 10 30
18 33 17 3 -1 6 6 7 15 0 9 4 46 8 82 8 74 -6 141 -36 171 -25 25 -42 24 -74
-3z"/>
<path d="M42552 27115 c-39 -49 -38 -169 3 -231 14 -21 22 -25 58 -22 37 3 44
7 59 38 12 23 18 58 18 100 0 42 -6 77 -18 100 -15 30 -22 35 -58 38 -35 3
-45 -1 -62 -23z"/>
<path d="M28521 26547 c-34 -17 -54 -79 -48 -152 3 -33 10 -72 17 -87 15 -32
61 -51 93 -39 51 20 68 70 57 172 -7 62 -12 77 -35 96 -29 26 -49 28 -84 10z"/>
<path d="M42555 26536 c-44 -44 -43 -198 1 -247 22 -25 85 -25 107 -1 52 59
40 243 -18 266 -33 12 -66 6 -90 -18z"/>
<path d="M42571 25964 c-47 -33 -64 -122 -40 -209 15 -56 35 -75 80 -75 66 0
99 71 84 186 -11 88 -71 135 -124 98z"/>
<path d="M28543 33323 c9 -2 25 -2 35 0 9 3 1 5 -18 5 -19 0 -27 -2 -17 -5z"/>
<path d="M28373 133 c-21 -8 -15 -22 7 -16 11 3 20 9 20 14 0 10 -8 10 -27 2z"/>
<path d="M28376 58 c3 -5 10 -6 15 -3 13 9 11 12 -6 12 -8 0 -12 -4 -9 -9z"/>
</g>
</svg>
